<svg width="380" height="100" viewBox="0 0 380 100" fill="none" xmlns="http://www.w3.org/2000/svg">
<path d="M-1.33562e-05 76.3888L0 0L100 1.74846e-05L100 76.3888L50 99.9999L-1.33562e-05 76.3888Z" fill="#FD58DF"/>
<path d="M100 11.1113H99.999V76.3887L88.8877 70.833V11.1113H11.1113L0 0H100V11.1113Z" fill="#E600BC"/>
<path d="M50 88.8884L100 65.2773V76.3884L50 99.9995V88.8884Z" fill="#BC0099"/>
<rect x="29.167" y="36.1123" width="41.6666" height="5.55555" fill="#333333"/>
<rect x="47.2227" y="52.7783" width="11.1111" height="5.55555" transform="rotate(-90 47.2227 52.7783)" fill="#333333"/>
<rect x="29.167" y="52.7783" width="11.1111" height="5.55555" transform="rotate(-90 29.167 52.7783)" fill="#333333"/>
<rect x="65.2773" y="52.7783" width="11.1111" height="5.55555" transform="rotate(-90 65.2773 52.7783)" fill="#333333"/>
<rect x="25" y="50" width="13.8889" height="13.8889" fill="#333333"/>
<rect x="43.0557" y="50" width="13.8889" height="13.8889" fill="#333333"/>
<rect x="61.1123" y="50" width="13.8889" height="13.8889" fill="#333333"/>
<path d="M368.429 88.0749C365.822 88.0749 363.537 87.5623 361.574 86.537C359.641 85.4825 358.132 84.0471 357.049 82.2309C355.994 80.4148 355.467 78.3496 355.467 76.0355C355.467 73.6921 355.979 71.6269 357.005 69.84C358.059 68.0239 359.495 66.6032 361.311 65.5779C363.156 64.5527 365.251 64.04 367.594 64.04C369.879 64.04 371.915 64.538 373.702 65.534C375.488 66.5299 376.895 67.936 377.92 69.7522C378.945 71.5683 379.458 73.7067 379.458 76.1673C379.458 76.4017 379.443 76.6653 379.414 76.9582C379.414 77.2512 379.399 77.5294 379.37 77.7931H359.817V74.1461H376.47L374.317 75.2885C374.346 73.941 374.068 72.7547 373.482 71.7294C372.896 70.7042 372.091 69.8986 371.065 69.3128C370.069 68.7269 368.912 68.434 367.594 68.434C366.247 68.434 365.06 68.7269 364.035 69.3128C363.039 69.8986 362.248 70.7188 361.662 71.7734C361.106 72.7986 360.827 74.0143 360.827 75.4203V76.2991C360.827 77.7052 361.15 78.9501 361.794 80.034C362.439 81.1178 363.347 81.9527 364.518 82.5385C365.69 83.1244 367.038 83.4173 368.561 83.4173C369.879 83.4173 371.065 83.2123 372.12 82.8022C373.174 82.3921 374.112 81.7476 374.932 80.8688L377.876 84.2522C376.821 85.4825 375.489 86.4345 373.877 87.1082C372.296 87.7527 370.479 88.0749 368.429 88.0749Z" fill="#BC0099"/>
<path d="M344.7 87.7679V64.3043H350.193V87.7679H344.7ZM347.468 60.4376C346.443 60.4376 345.594 60.1154 344.92 59.4709C344.275 58.8265 343.953 58.0502 343.953 57.1421C343.953 56.2048 344.275 55.4285 344.92 54.8133C345.594 54.1689 346.443 53.8467 347.468 53.8467C348.494 53.8467 349.328 54.1543 349.973 54.7694C350.647 55.3553 350.983 56.1022 350.983 57.0103C350.983 57.977 350.661 58.7972 350.017 59.4709C349.372 60.1154 348.523 60.4376 347.468 60.4376Z" fill="#BC0099"/>
<path d="M334.91 88.0752C332.332 88.0752 330.34 87.4161 328.934 86.0979C327.528 84.7505 326.825 82.7732 326.825 80.1661V59.1191H332.317V80.0343C332.317 81.1474 332.595 82.0116 333.152 82.6267C333.738 83.2419 334.543 83.5494 335.569 83.5494C336.799 83.5494 337.824 83.2272 338.644 82.5828L340.182 86.4934C339.538 87.0207 338.747 87.4161 337.81 87.6798C336.872 87.9434 335.905 88.0752 334.91 88.0752ZM322.958 68.6979V64.304H338.6V68.6979H322.958Z" fill="#BC0099"/>
<path d="M313.845 87.7673V83.0219L313.537 82.0113V73.7067C313.537 72.0956 313.054 70.8506 312.087 69.9719C311.12 69.0638 309.656 68.6097 307.693 68.6097C306.375 68.6097 305.071 68.8148 303.782 69.2249C302.523 69.635 301.454 70.2062 300.575 70.9385L298.422 66.94C299.681 65.9734 301.175 65.2557 302.904 64.787C304.661 64.289 306.477 64.04 308.352 64.04C311.75 64.04 314.372 64.8602 316.217 66.5006C318.092 68.1118 319.029 70.6163 319.029 74.0143V87.7673H313.845ZM306.463 88.0749C304.705 88.0749 303.167 87.782 301.849 87.1961C300.531 86.5809 299.506 85.7461 298.773 84.6916C298.07 83.6077 297.719 82.3921 297.719 81.0446C297.719 79.7264 298.026 78.54 298.641 77.4855C299.286 76.4309 300.326 75.5961 301.761 74.9809C303.197 74.3658 305.101 74.0582 307.473 74.0582H314.284V77.7052H307.869C305.994 77.7052 304.734 78.0128 304.09 78.6279C303.446 79.2138 303.123 79.9461 303.123 80.8249C303.123 81.8208 303.519 82.6118 304.31 83.1976C305.101 83.7835 306.199 84.0764 307.605 84.0764C308.953 84.0764 310.154 83.7688 311.208 83.1537C312.292 82.5385 313.068 81.6304 313.537 80.4294L314.46 83.7249C313.932 85.1017 312.98 86.1708 311.604 86.9325C310.256 87.6941 308.542 88.0749 306.463 88.0749Z" fill="#BC0099"/>
<path d="M284.025 88.0749C282.062 88.0749 280.173 87.8259 278.357 87.3279C276.57 86.8006 275.149 86.1708 274.095 85.4385L276.204 81.2643C277.258 81.938 278.518 82.4946 279.983 82.934C281.447 83.3734 282.912 83.5931 284.377 83.5931C286.105 83.5931 287.35 83.3587 288.111 82.89C288.902 82.4213 289.298 81.7916 289.298 81.0006C289.298 80.3562 289.034 79.8729 288.507 79.5506C287.98 79.1991 287.291 78.9355 286.442 78.7597C285.592 78.584 284.64 78.4229 283.586 78.2764C282.56 78.1299 281.52 77.9395 280.466 77.7052C279.441 77.4416 278.503 77.0754 277.654 76.6067C276.804 76.1087 276.116 75.4496 275.589 74.6294C275.061 73.8092 274.798 72.7254 274.798 71.3779C274.798 69.884 275.223 68.5951 276.072 67.5113C276.921 66.3981 278.108 65.5486 279.631 64.9628C281.184 64.3476 283.014 64.04 285.124 64.04C286.705 64.04 288.302 64.2158 289.913 64.5673C291.524 64.9188 292.857 65.4168 293.911 66.0613L291.802 70.2355C290.689 69.5618 289.561 69.1077 288.419 68.8734C287.306 68.6097 286.193 68.4779 285.08 68.4779C283.41 68.4779 282.165 68.7269 281.345 69.2249C280.554 69.7229 280.158 70.3527 280.158 71.1143C280.158 71.8173 280.422 72.3446 280.949 72.6961C281.477 73.0476 282.165 73.3259 283.014 73.5309C283.864 73.736 284.801 73.9118 285.827 74.0582C286.881 74.1754 287.921 74.3658 288.946 74.6294C289.971 74.8931 290.909 75.2592 291.758 75.7279C292.637 76.1673 293.34 76.7971 293.867 77.6173C294.395 78.4375 294.658 79.5067 294.658 80.8249C294.658 82.2895 294.219 83.5638 293.34 84.6476C292.491 85.7314 291.275 86.5809 289.693 87.1961C288.111 87.782 286.222 88.0749 284.025 88.0749Z" fill="#BC0099"/>
<path d="M264.072 87.7679V64.3043H269.565V87.7679H264.072ZM266.84 60.4376C265.815 60.4376 264.966 60.1154 264.292 59.4709C263.647 58.8265 263.325 58.0502 263.325 57.1421C263.325 56.2048 263.647 55.4285 264.292 54.8133C264.966 54.1689 265.815 53.8467 266.84 53.8467C267.866 53.8467 268.7 54.1543 269.345 54.7694C270.019 55.3553 270.355 56.1022 270.355 57.0103C270.355 57.977 270.033 58.7972 269.389 59.4709C268.744 60.1154 267.895 60.4376 266.84 60.4376Z" fill="#BC0099"/>
<path d="M233.993 87.7673V64.3037H239.222V70.6309L238.299 68.6976C239.119 67.2037 240.306 66.0613 241.858 65.2703C243.44 64.4501 245.256 64.04 247.307 64.04C249.182 64.04 250.851 64.4062 252.316 65.1385C253.81 65.8708 254.982 66.9986 255.831 68.5219C256.681 70.0158 257.105 71.9491 257.105 74.3219V87.7673H251.613V75.0249C251.613 72.9451 251.115 71.3926 250.119 70.3673C249.152 69.3421 247.79 68.8294 246.033 68.8294C244.744 68.8294 243.601 69.0931 242.605 69.6203C241.609 70.1476 240.833 70.9385 240.277 71.9931C239.749 73.0183 239.486 74.3219 239.486 75.9037V87.7673H233.993Z" fill="#BC0099"/>
<path d="M221.761 87.7673V83.0219L221.453 82.0113V73.7067C221.453 72.0956 220.97 70.8506 220.003 69.9719C219.036 69.0638 217.572 68.6097 215.609 68.6097C214.291 68.6097 212.987 68.8148 211.698 69.2249C210.439 69.635 209.37 70.2062 208.491 70.9385L206.338 66.94C207.597 65.9734 209.091 65.2557 210.82 64.787C212.577 64.289 214.393 64.04 216.268 64.04C219.666 64.04 222.288 64.8602 224.133 66.5006C226.008 68.1118 226.945 70.6163 226.945 74.0143V87.7673H221.761ZM214.379 88.0749C212.621 88.0749 211.083 87.782 209.765 87.1961C208.447 86.5809 207.422 85.7461 206.689 84.6916C205.986 83.6077 205.635 82.3921 205.635 81.0446C205.635 79.7264 205.942 78.54 206.557 77.4855C207.202 76.4309 208.242 75.5961 209.677 74.9809C211.113 74.3658 213.017 74.0582 215.389 74.0582H222.2V77.7052H215.785C213.91 77.7052 212.65 78.0128 212.006 78.6279C211.362 79.2138 211.039 79.9461 211.039 80.8249C211.039 81.8208 211.435 82.6118 212.226 83.1976C213.017 83.7835 214.115 84.0764 215.521 84.0764C216.869 84.0764 218.07 83.7688 219.124 83.1537C220.208 82.5385 220.984 81.6304 221.453 80.4294L222.376 83.7249C221.848 85.1017 220.896 86.1708 219.52 86.9325C218.172 87.6941 216.459 88.0749 214.379 88.0749Z" fill="#BC0099"/>
<path d="M187.428 96.5991C185.26 96.5991 183.137 96.3062 181.057 95.7203C179.006 95.1638 177.322 94.3436 176.004 93.2597L178.464 89.1294C179.49 89.9789 180.779 90.6527 182.331 91.1507C183.913 91.6779 185.509 91.9416 187.12 91.9416C189.698 91.9416 191.588 91.3411 192.789 90.14C193.99 88.9683 194.59 87.1961 194.59 84.8234V80.6491L195.03 75.3325L194.854 70.0158V64.3037H200.083V84.2082C200.083 88.4557 198.999 91.5754 196.831 93.5673C194.663 95.5885 191.529 96.5991 187.428 96.5991ZM186.725 86.7128C184.499 86.7128 182.477 86.2441 180.661 85.3067C178.874 84.34 177.454 83.0072 176.399 81.3082C175.374 79.6092 174.861 77.6173 174.861 75.3325C174.861 73.0769 175.374 71.0996 176.399 69.4006C177.454 67.7017 178.874 66.3835 180.661 65.4461C182.477 64.5087 184.499 64.04 186.725 64.04C188.717 64.04 190.504 64.4355 192.086 65.2264C193.667 66.0173 194.927 67.2476 195.864 68.9173C196.831 70.587 197.314 72.7254 197.314 75.3325C197.314 77.9395 196.831 80.0926 195.864 81.7916C194.927 83.4613 193.667 84.7062 192.086 85.5264C190.504 86.3173 188.717 86.7128 186.725 86.7128ZM187.56 82.0552C188.937 82.0552 190.167 81.7769 191.251 81.2203C192.335 80.6345 193.169 79.8436 193.755 78.8476C194.37 77.8224 194.678 76.6506 194.678 75.3325C194.678 74.0143 194.37 72.8572 193.755 71.8612C193.169 70.836 192.335 70.0597 191.251 69.5325C190.167 68.9759 188.937 68.6976 187.56 68.6976C186.183 68.6976 184.938 68.9759 183.825 69.5325C182.741 70.0597 181.892 70.836 181.276 71.8612C180.691 72.8572 180.398 74.0143 180.398 75.3325C180.398 76.6506 180.691 77.8224 181.276 78.8476C181.892 79.8436 182.741 80.6345 183.825 81.2203C184.938 81.7769 186.183 82.0552 187.56 82.0552Z" fill="#BC0099"/>
<path d="M158.772 87.7673V64.3037H164.001V70.7628L163.386 68.8734C164.089 67.2916 165.188 66.0905 166.682 65.2703C168.205 64.4501 170.094 64.04 172.35 64.04V69.2688C172.115 69.2102 171.896 69.1809 171.691 69.1809C171.486 69.1517 171.281 69.137 171.075 69.137C168.996 69.137 167.341 69.7522 166.11 70.9825C164.88 72.1835 164.265 73.985 164.265 76.387V87.7673H158.772Z" fill="#BC0099"/>
<path d="M136.724 88.2077C134.322 88.2077 132.111 87.8122 130.089 87.0213C128.068 86.2304 126.311 85.1319 124.817 83.7258C123.323 82.2905 122.166 80.6208 121.346 78.7167C120.525 76.7834 120.115 74.6743 120.115 72.3895C120.115 70.1046 120.525 68.0102 121.346 66.1061C122.166 64.1728 123.323 62.5031 124.817 61.097C126.311 59.6617 128.068 58.5486 130.089 57.7577C132.111 56.9667 134.308 56.5713 136.68 56.5713C139.082 56.5713 141.279 56.9667 143.271 57.7577C145.293 58.5486 147.05 59.6617 148.544 61.097C150.038 62.5031 151.195 64.1728 152.015 66.1061C152.835 68.0102 153.246 70.1046 153.246 72.3895C153.246 74.6743 152.835 76.7834 152.015 78.7167C151.195 80.6501 150.038 82.3198 148.544 83.7258C147.05 85.1319 145.293 86.2304 143.271 87.0213C141.279 87.8122 139.097 88.2077 136.724 88.2077ZM136.68 83.1986C138.233 83.1986 139.668 82.9349 140.986 82.4076C142.305 81.8804 143.447 81.1334 144.414 80.1667C145.38 79.1708 146.127 78.0284 146.655 76.7395C147.211 75.4213 147.489 73.9713 147.489 72.3895C147.489 70.8077 147.211 69.3723 146.655 68.0834C146.127 66.7652 145.38 65.6228 144.414 64.6561C143.447 63.6602 142.305 62.8986 140.986 62.3713C139.668 61.844 138.233 61.5804 136.68 61.5804C135.128 61.5804 133.693 61.844 132.374 62.3713C131.085 62.8986 129.943 63.6602 128.947 64.6561C127.98 65.6228 127.219 66.7652 126.662 68.0834C126.135 69.3723 125.871 70.8077 125.871 72.3895C125.871 73.942 126.135 75.3774 126.662 76.6955C127.219 78.0137 127.98 79.1708 128.947 80.1667C129.914 81.1334 131.056 81.8804 132.374 82.4076C133.693 82.9349 135.128 83.1986 136.68 83.1986Z" fill="#BC0099"/>
<path d="M192.342 39.2835V21.6169H195.408V26.3835L194.908 25.1169C195.486 23.9613 196.375 23.0613 197.575 22.4169C198.775 21.7724 200.175 21.4502 201.775 21.4502C203.22 21.4502 204.486 21.728 205.575 22.2835C206.686 22.8391 207.553 23.6835 208.175 24.8169C208.797 25.9502 209.108 27.3835 209.108 29.1169V39.2835H205.908V29.4835C205.908 27.7724 205.486 26.4835 204.642 25.6169C203.82 24.7502 202.653 24.3169 201.142 24.3169C200.008 24.3169 199.02 24.5391 198.175 24.9835C197.331 25.428 196.675 26.0835 196.208 26.9502C195.764 27.8169 195.542 28.8946 195.542 30.1835V39.2835H192.342Z" fill="#333333"/>
<path d="M179.798 39.4835C177.909 39.4835 176.242 39.0946 174.798 38.3169C173.376 37.5391 172.265 36.4724 171.465 35.1169C170.687 33.7613 170.298 32.2058 170.298 30.4502C170.298 28.6946 170.676 27.1391 171.431 25.7835C172.209 24.428 173.265 23.3724 174.598 22.6169C175.953 21.8391 177.476 21.4502 179.165 21.4502C180.876 21.4502 182.387 21.828 183.698 22.5835C185.009 23.3391 186.031 24.4058 186.765 25.7835C187.52 27.1391 187.898 28.728 187.898 30.5502C187.898 30.6835 187.887 30.8391 187.865 31.0169C187.865 31.1946 187.853 31.3613 187.831 31.5169H172.798V29.2169H186.165L184.865 30.0169C184.887 28.8835 184.653 27.8724 184.165 26.9835C183.676 26.0946 182.998 25.4058 182.131 24.9169C181.287 24.4058 180.298 24.1502 179.165 24.1502C178.053 24.1502 177.065 24.4058 176.198 24.9169C175.331 25.4058 174.653 26.1058 174.165 27.0169C173.676 27.9058 173.431 28.928 173.431 30.0835V30.6169C173.431 31.7946 173.698 32.8502 174.231 33.7835C174.787 34.6946 175.553 35.4058 176.531 35.9169C177.509 36.428 178.631 36.6835 179.898 36.6835C180.942 36.6835 181.887 36.5058 182.731 36.1502C183.598 35.7946 184.353 35.2613 184.998 34.5502L186.765 36.6169C185.965 37.5502 184.965 38.2613 183.765 38.7502C182.587 39.2391 181.265 39.4835 179.798 39.4835Z" fill="#333333"/>
<path d="M158.577 39.4835C157.11 39.4835 155.766 39.1502 154.543 38.4835C153.343 37.7946 152.377 36.7835 151.643 35.4502C150.932 34.1169 150.577 32.4502 150.577 30.4502C150.577 28.4502 150.921 26.7835 151.61 25.4502C152.321 24.1169 153.277 23.1169 154.477 22.4502C155.699 21.7835 157.066 21.4502 158.577 21.4502C160.31 21.4502 161.843 21.828 163.177 22.5835C164.51 23.3391 165.566 24.3946 166.343 25.7502C167.121 27.0835 167.51 28.6502 167.51 30.4502C167.51 32.2502 167.121 33.828 166.343 35.1835C165.566 36.5391 164.51 37.5946 163.177 38.3502C161.843 39.1058 160.31 39.4835 158.577 39.4835ZM149.21 45.7502V21.6169H152.277V26.3835L152.077 30.4835L152.41 34.5835V45.7502H149.21ZM158.31 36.6835C159.443 36.6835 160.454 36.428 161.343 35.9169C162.254 35.4058 162.966 34.6835 163.477 33.7502C164.01 32.7946 164.277 31.6946 164.277 30.4502C164.277 29.1835 164.01 28.0946 163.477 27.1835C162.966 26.2502 162.254 25.528 161.343 25.0169C160.454 24.5058 159.443 24.2502 158.31 24.2502C157.199 24.2502 156.188 24.5058 155.277 25.0169C154.388 25.528 153.677 26.2502 153.143 27.1835C152.632 28.0946 152.377 29.1835 152.377 30.4502C152.377 31.6946 152.632 32.7946 153.143 33.7502C153.677 34.6835 154.388 35.4058 155.277 35.9169C156.188 36.428 157.199 36.6835 158.31 36.6835Z" fill="#333333"/>
<path d="M132.215 39.5493C130.437 39.5493 128.781 39.2493 127.248 38.6493C125.737 38.0493 124.426 37.216 123.315 36.1493C122.203 35.0604 121.337 33.7937 120.715 32.3493C120.092 30.9048 119.781 29.3271 119.781 27.616C119.781 25.9048 120.092 24.3271 120.715 22.8826C121.337 21.4382 122.203 20.1826 123.315 19.116C124.426 18.0271 125.737 17.1826 127.248 16.5826C128.759 15.9826 130.415 15.6826 132.215 15.6826C133.992 15.6826 135.626 15.9826 137.115 16.5826C138.626 17.1604 139.937 17.9937 141.048 19.0826C142.181 20.1493 143.048 21.4048 143.648 22.8493C144.27 24.2937 144.581 25.8826 144.581 27.616C144.581 29.3493 144.27 30.9382 143.648 32.3826C143.048 33.8271 142.181 35.0937 141.048 36.1826C139.937 37.2493 138.626 38.0826 137.115 38.6826C135.626 39.2604 133.992 39.5493 132.215 39.5493ZM132.215 36.5826C133.503 36.5826 134.692 36.3604 135.781 35.916C136.892 35.4715 137.848 34.8493 138.648 34.0493C139.47 33.2271 140.103 32.2715 140.548 31.1826C141.015 30.0937 141.248 28.9048 141.248 27.616C141.248 26.3271 141.015 25.1382 140.548 24.0493C140.103 22.9604 139.47 22.0159 138.648 21.2159C137.848 20.3937 136.892 19.7604 135.781 19.316C134.692 18.8715 133.503 18.6493 132.215 18.6493C130.903 18.6493 129.692 18.8715 128.581 19.316C127.492 19.7604 126.537 20.3937 125.715 21.2159C124.892 22.0159 124.248 22.9604 123.781 24.0493C123.337 25.1382 123.115 26.3271 123.115 27.616C123.115 28.9048 123.337 30.0937 123.781 31.1826C124.248 32.2715 124.892 33.2271 125.715 34.0493C126.537 34.8493 127.492 35.4715 128.581 35.916C129.692 36.3604 130.903 36.5826 132.215 36.5826Z" fill="#333333"/>
</svg>
